<?xml version="1.0" encoding="iso-8859-1"?>
<!-- Uploaded to: SVG Repo, www.svgrepo.com, Generator: SVG Repo Mixer Tools -->
<!DOCTYPE svg PUBLIC "-//W3C//DTD SVG 1.1//EN" "http://www.w3.org/Graphics/SVG/1.1/DTD/svg11.dtd">
<svg fill="#000000" height="800px" width="800px" version="1.1" id="Capa_1" xmlns="http://www.w3.org/2000/svg" xmlns:xlink="http://www.w3.org/1999/xlink" 
	 viewBox="0 0 60 60" xml:space="preserve">
<g>
	<path d="M6.221,39.293c-0.391-0.391-1.023-0.391-1.414,0l-2.5,2.5c-1.769,1.769-1.769,4.646,0,6.414
		c0.855,0.856,1.995,1.329,3.207,1.329c1.211,0,2.351-0.473,3.207-1.329c1.768-1.769,1.768-4.646,0-6.414L6.221,39.293z"/>
	<path d="M37.438,25.094l10.619,10.619c2.333-2.513,3.918-5.063,4.257-6.831l0.196-3.706L41.636,14.303l-0.321,1.866
		c-0.282,1.886-1.714,4.466-3.924,7.057C36.914,23.787,36.934,24.59,37.438,25.094z"/>
	<path d="M30.402,51.793L19.89,41.309c-0.312-0.31-0.793-0.38-1.196-0.173c-1.34,0.681-2.514,1.103-3.489,1.257l-0.105,0.011
		l-1.839,0.091l11.696,11.696l2.725-1.079C28.513,52.836,29.521,52.292,30.402,51.793z"/>
	<path d="M58.295,30.962l-3.89-3.89l-0.112,2.103c-0.385,2.161-2.121,5.042-4.765,7.904c-0.368,0.399-0.873,0.625-1.42,0.637
		c-0.014,0-0.026,0-0.04,0c-0.532,0-1.05-0.214-1.426-0.59L36.024,26.508c-1.249-1.249-1.314-3.217-0.153-4.579
		c1.944-2.281,3.242-4.553,3.471-6.077l0.564-3.28l-6.359-6.359c-0.5-0.5-1.189-0.754-2.05-0.754c-0.728,0-1.607,0.207-2.593,0.579
		C28.221,2.6,25.184,0,21.549,0c-4.136,0-7.5,3.364-7.5,7.5v9.756C7.555,24.043,2.626,31.861,5.262,34.497l6.089,6.089l3.592-0.178
		c0.751-0.127,1.733-0.491,2.844-1.056c1.179-0.599,2.591-0.38,3.513,0.538l10.52,10.47c0.448,0.447,0.656,1.063,0.57,1.691
		c-0.085,0.63-0.45,1.17-1.003,1.482c-1.371,0.775-2.276,1.211-3.024,1.458l-1.867,0.739l3.515,3.515
		c0.5,0.5,1.19,0.754,2.051,0.754c3.398,0,9.962-4.281,16.334-10.653C55.423,42.319,61.08,33.747,58.295,30.962z M27.049,20.941
		c0.702-0.81,1.37-1.621,2-2.429V30h-2V20.941z M32.132,7.627l0.001,0.002c0.255,0.257,0.26,1.165-0.361,2.733
		c-0.468,1.152-1.248,2.609-2.391,4.312c-0.072,0.107-0.14,0.212-0.214,0.319c-0.037,0.054-0.081,0.113-0.119,0.168V8.116
		c1.008-0.435,1.839-0.657,2.447-0.657C31.671,7.459,31.985,7.481,32.132,7.627z M21.549,2c2.826,0,5.16,2.145,5.464,4.892
		c-3.16,1.636-7.066,4.584-10.964,8.355V7.5C16.049,4.468,18.517,2,21.549,2z M16.576,17.527c3.942-3.942,7.625-6.754,10.473-8.389
		v8.694c-0.069,0.086-0.141,0.174-0.212,0.261c-0.266,0.327-0.535,0.655-0.815,0.985c-0.096,0.113-0.197,0.228-0.295,0.342
		c-0.288,0.334-0.579,0.669-0.88,1.004c-0.151,0.168-0.311,0.339-0.467,0.509c-0.259,0.283-0.517,0.565-0.784,0.848
		c-0.438,0.461-0.889,0.928-1.363,1.402c-6.609,6.609-12.509,10.067-14.92,10.067c-0.044,0-0.096-0.001-0.152-0.006
		c-0.169-0.013-0.373-0.052-0.482-0.161l-0.002-0.001C5.716,32.123,8.341,25.763,16.576,17.527z M31.584,33.535
		C30.641,34.479,29.385,35,28.049,35s-2.592-0.521-3.535-1.465c-0.944-0.943-1.465-2.199-1.465-3.535s0.521-2.592,1.465-3.535
		l1.414,1.414c-0.566,0.566-0.879,1.319-0.879,2.121s0.312,1.555,0.879,2.121c1.133,1.133,3.109,1.133,4.242,0
		c0.566-0.566,0.879-1.319,0.879-2.121s-0.313-1.555-0.879-2.121l1.414-1.414c0.944,0.943,1.465,2.199,1.465,3.535
		S32.528,32.592,31.584,33.535z"/>
</g>
</svg>